<?xml version="1.0" standalone="no"?>
<!DOCTYPE svg PUBLIC "-//W3C//DTD SVG 20010904//EN"
 "http://www.w3.org/TR/2001/REC-SVG-20010904/DTD/svg10.dtd">
<svg version="1.0" xmlns="http://www.w3.org/2000/svg"
 width="346.000000pt" height="346.000000pt" viewBox="0 0 346.000000 346.000000"
 preserveAspectRatio="xMidYMid meet">
<metadata>
Created by potrace 1.11, written by Peter Selinger 2001-2013
</metadata>
<g transform="translate(0.000000,346.000000) scale(0.100000,-0.100000)"
fill="#000000" stroke="none">
<path d="M1615 3072 c-16 -2 -65 -12 -109 -23 -43 -10 -106 -19 -138 -19 -69
0 -122 -21 -146 -59 -39 -62 -130 -155 -173 -177 -74 -37 -82 -49 -74 -110 5
-44 2 -61 -23 -116 -16 -36 -38 -69 -48 -73 -22 -10 -18 -9 -201 -19 -79 -5
-143 -12 -143 -16 0 -10 -51 -7 -70 5 -8 5 -52 11 -97 13 -71 4 -82 2 -78 -10
9 -22 -71 -31 -104 -12 -26 14 -25 14 11 8 52 -8 68 5 29 24 -25 12 -37 12
-57 3 -31 -14 -101 -15 -109 -1 -3 6 -1 10 4 10 6 0 11 13 11 29 0 17 6 31 16
35 8 3 13 10 10 15 -8 12 21 34 34 26 6 -4 10 10 10 40 0 25 7 59 15 74 8 16
12 31 9 34 -10 10 20 67 38 73 11 3 17 14 15 27 -1 13 4 22 13 22 9 0 16 11
18 28 3 24 6 26 18 16 13 -11 15 -8 11 16 -2 16 -10 30 -18 31 -8 2 -70 19
-139 38 -69 20 -131 36 -137 36 -10 0 -13 -226 -13 -1097 0 -937 2 -1107 15
-1161 8 -35 20 -123 25 -195 13 -173 29 -244 80 -349 37 -78 41 -94 38 -145
-2 -32 -8 -66 -12 -75 -8 -17 75 -18 1653 -18 l1661 0 0 1093 0 1093 -37 21
c-21 12 -83 35 -138 52 -284 86 -300 92 -317 114 -17 22 -22 34 -19 50 5 28
-26 95 -61 133 -31 34 -54 48 -97 60 -87 25 -124 48 -209 128 -44 41 -99 86
-123 102 -24 15 -60 38 -79 50 -114 73 -633 193 -765 176z m-541 -407 c6 -18
-16 -30 -39 -21 -20 7 -8 36 15 36 10 0 21 -7 24 -15z m-674 -1340 c0 -8 -7
-30 -16 -49 -23 -48 -13 -70 29 -63 38 6 67 -7 97 -45 12 -16 27 -28 34 -28
24 0 96 -41 96 -55 0 -30 -108 -85 -169 -85 -45 0 -140 54 -158 90 -25 50 -10
139 38 216 21 35 49 46 49 19z"/>
<path d="M283 2493 c9 -2 25 -2 35 0 9 3 1 5 -18 5 -19 0 -27 -2 -17 -5z"/>
<path d="M473 2490 c9 -6 22 -8 28 -5 5 4 17 1 26 -7 14 -11 16 -11 11 2 -3 9
-20 16 -44 18 -31 2 -36 0 -21 -8z"/>
</g>
</svg>
